<svg aria-hidden="true" style="position: absolute; width: 0; height: 0; overflow: hidden;" version="1.1" xmlns="http://www.w3.org/2000/svg" xmlns:xlink="http://www.w3.org/1999/xlink">
    <defs>
        <symbol id="icon-Vector" viewBox="0 0 465 32">
            <path d="M471.133 19.002c-93.402-16.745-188.381-7.483-282.017-10.498-61.917-2.017-123.838-6.876-185.709-8.503-1.855-0.043-3.381 2.82-3.406 6.42-0.025 3.601 1.461 6.551 3.315 6.594 61.865 1.627 123.779 6.486 185.689 8.503 93.468 3.015 188.267-6.269 281.5 10.455 1.847 0.326 3.485-2.299 3.663-5.878 0.169-3.579-1.199-6.746-3.034-7.093z"></path>
        </symbol>
        <symbol id="icon-section-3-vector" viewBox="0 0 52 32">
            <path d="M6.571 0.077c-2.040 0.918-4.066 1.809-6.078 2.786-0.434 0.209-0.614 0.727-0.406 1.158 0.208 0.435 0.729 0.616 1.159 0.407 2.002-0.97 4.010-1.854 6.037-2.765 0.437-0.198 0.631-0.713 0.437-1.148-0.198-0.438-0.711-0.637-1.148-0.438z"></path>
            <path d="M21.558 10.94c-2.963 6.431-5.599 13.009-8.424 19.499-0.191 0.442 0.010 0.953 0.448 1.144 0.441 0.191 0.95-0.007 1.145-0.449 2.817-6.48 5.447-13.047 8.406-19.464 0.201-0.438 0.011-0.953-0.423-1.155-0.437-0.202-0.951-0.010-1.152 0.424z"></path>
            <path d="M46.977 12.609c0.947 5.913 2.061 11.809 2.942 17.732 0.073 0.473 0.513 0.8 0.985 0.73 0.475-0.070 0.801-0.515 0.732-0.988-0.885-5.93-1.998-11.833-2.949-17.753-0.076-0.473-0.52-0.797-0.992-0.72-0.475 0.077-0.795 0.522-0.718 0.998z"></path>
        </symbol>
        <symbol id="icon-arrow-up2" viewBox="0 0 32 32">
            <path d="M19.414 27.414l10-10c0.781-0.781 0.781-2.047 0-2.828l-10-10c-0.781-0.781-2.047-0.781-2.828 0s-0.781 2.047 0 2.828l6.586 6.586h-19.172c-1.105 0-2 0.895-2 2s0.895 2 2 2h19.172l-6.586 6.586c-0.39 0.39-0.586 0.902-0.586 1.414s0.195 1.024 0.586 1.414c0.781 0.781 2.047 0.781 2.828 0z"></path>
        </symbol>
        <symbol id="icon-Stars" viewBox="0 0 202 32">
            <path fill="#ffe550" style="fill: var(--color1, #ffe550)" d="M15.421 1.037c0.584-1.383 2.575-1.383 3.159 0l3.449 8.164c0.247 0.583 0.804 0.982 1.443 1.032l8.952 0.707c1.517 0.12 2.132 1.983 0.976 2.958l-6.821 5.752c-0.487 0.411-0.7 1.056-0.551 1.67l2.084 8.6c0.353 1.457-1.257 2.609-2.556 1.828l-7.664-4.609c-0.547-0.329-1.236-0.329-1.783 0l-7.664 4.609c-1.299 0.781-2.909-0.371-2.556-1.828l2.084-8.6c0.149-0.614-0.064-1.259-0.551-1.67l-6.821-5.752c-1.156-0.975-0.541-2.838 0.976-2.958l8.952-0.707c0.639-0.050 1.196-0.449 1.443-1.032l3.449-8.164z"></path>
            <path fill="#ffe550" style="fill: var(--color1, #ffe550)" d="M57.421 1.037c0.584-1.383 2.575-1.383 3.159 0l3.449 8.164c0.247 0.583 0.804 0.982 1.443 1.032l8.952 0.707c1.517 0.12 2.132 1.983 0.976 2.958l-6.821 5.752c-0.487 0.411-0.7 1.056-0.551 1.67l2.084 8.6c0.353 1.457-1.257 2.609-2.556 1.828l-7.664-4.609c-0.548-0.329-1.236-0.329-1.783 0l-7.664 4.609c-1.299 0.781-2.909-0.371-2.556-1.828l2.084-8.6c0.149-0.614-0.064-1.259-0.551-1.67l-6.821-5.752c-1.156-0.975-0.541-2.838 0.976-2.958l8.952-0.707c0.639-0.050 1.196-0.449 1.443-1.032l3.449-8.164z"></path>
            <path fill="#ffe550" style="fill: var(--color1, #ffe550)" d="M99.421 1.037c0.584-1.383 2.575-1.383 3.159 0l3.449 8.164c0.247 0.583 0.804 0.982 1.443 1.032l8.952 0.707c1.517 0.12 2.132 1.983 0.976 2.958l-6.821 5.752c-0.487 0.411-0.7 1.056-0.551 1.67l2.084 8.6c0.353 1.457-1.257 2.609-2.556 1.828l-7.664-4.609c-0.548-0.329-1.236-0.329-1.783 0l-7.664 4.609c-1.299 0.781-2.909-0.371-2.556-1.828l2.084-8.6c0.149-0.614-0.064-1.259-0.551-1.67l-6.821-5.752c-1.156-0.975-0.541-2.838 0.976-2.958l8.952-0.707c0.639-0.050 1.196-0.449 1.443-1.032l3.449-8.164z"></path>
            <path fill="#ffe550" style="fill: var(--color1, #ffe550)" d="M141.421 1.037c0.584-1.383 2.575-1.383 3.159 0l3.449 8.164c0.247 0.583 0.804 0.982 1.443 1.032l8.952 0.707c1.517 0.12 2.132 1.983 0.976 2.958l-6.821 5.752c-0.487 0.411-0.7 1.056-0.551 1.67l2.084 8.6c0.353 1.457-1.257 2.609-2.556 1.828l-7.664-4.609c-0.548-0.329-1.236-0.329-1.783 0l-7.664 4.609c-1.299 0.781-2.909-0.371-2.556-1.828l2.084-8.6c0.149-0.614-0.064-1.259-0.551-1.67l-6.821-5.752c-1.156-0.975-0.541-2.838 0.976-2.958l8.952-0.707c0.639-0.050 1.196-0.449 1.443-1.032l3.449-8.164z"></path>
            <path fill="#ffe550" style="fill: var(--color1, #ffe550)" d="M183.421 1.037c0.584-1.383 2.575-1.383 3.159 0l3.449 8.164c0.247 0.583 0.804 0.982 1.443 1.032l8.953 0.707c1.516 0.12 2.132 1.983 0.976 2.958l-6.821 5.752c-0.487 0.411-0.7 1.056-0.551 1.67l2.084 8.6c0.353 1.457-1.257 2.609-2.556 1.828l-7.664-4.609c-0.548-0.329-1.236-0.329-1.783 0l-7.664 4.609c-1.299 0.781-2.909-0.371-2.556-1.828l2.084-8.6c0.149-0.614-0.064-1.259-0.551-1.67l-6.821-5.752c-1.156-0.975-0.541-2.838 0.976-2.958l8.952-0.707c0.639-0.050 1.196-0.449 1.443-1.032l3.449-8.164z"></path>
        </symbol>
        <symbol id="icon-instagram" viewBox="0 0 32 32">
            <path stroke-linejoin="round" stroke-linecap="round" stroke-miterlimit="4" stroke-width="2.6667" d="M22.667 2.667h-13.333c-3.682 0-6.667 2.985-6.667 6.667v13.333c0 3.682 2.985 6.667 6.667 6.667h13.333c3.682 0 6.667-2.985 6.667-6.667v-13.333c0-3.682-2.985-6.667-6.667-6.667z"></path>
            <path stroke-linejoin="round" stroke-linecap="round" stroke-miterlimit="4" stroke-width="2.6667" d="M21.333 15.16c0.165 1.11-0.025 2.243-0.542 3.239s-1.334 1.803-2.336 2.308c-1.002 0.504-2.138 0.68-3.245 0.502s-2.131-0.701-2.924-1.494c-0.793-0.793-1.316-1.816-1.494-2.924s-0.003-2.243 0.502-3.245c0.504-1.002 1.312-1.82 2.307-2.336s2.129-0.706 3.239-0.542c1.132 0.168 2.18 0.695 2.989 1.504s1.337 1.857 1.505 2.989z"></path>
            <path stroke-linejoin="round" stroke-linecap="round" stroke-miterlimit="4" stroke-width="2.6667" d="M23.333 8.667h0.013"></path>
        </symbol>
        <symbol id="icon-twitter" viewBox="0 0 32 32">
            <path stroke-linejoin="round" stroke-linecap="round" stroke-miterlimit="4" stroke-width="2.6667" d="M30.667 4c-1.277 0.901-2.691 1.589-4.187 2.040-0.803-0.923-1.87-1.578-3.057-1.875s-2.437-0.222-3.58 0.214c-1.143 0.436-2.125 1.213-2.812 2.226s-1.047 2.211-1.031 3.435v1.333c-2.343 0.061-4.665-0.459-6.759-1.513s-3.894-2.609-5.241-4.527c0 0-5.333 12 6.667 17.333-2.746 1.864-6.017 2.799-9.333 2.667 12 6.667 26.667 0 26.667-15.333 0-0.373-0.040-0.747-0.107-1.107 1.361-1.342 2.321-3.036 2.773-4.893z"></path>
        </symbol>
        <symbol id="icon-facebook" viewBox="0 0 32 32">
            <path stroke-linejoin="round" stroke-linecap="round" stroke-miterlimit="4" stroke-width="2.6667" d="M24 2.667h-4c-1.768 0-3.464 0.702-4.714 1.953s-1.953 2.946-1.953 4.714v4h-4v5.333h4v10.667h5.333v-10.667h4l1.333-5.333h-5.333v-4c0-0.354 0.141-0.693 0.391-0.943s0.589-0.391 0.943-0.391h4v-5.333z"></path>
        </symbol>
    </defs>
</svg>